<svg
   xmlns:dc="http://purl.org/dc/elements/1.1/"
   xmlns:cc="http://creativecommons.org/ns#"
   xmlns:rdf="http://www.w3.org/1999/02/22-rdf-syntax-ns#"
   xmlns:svg="http://www.w3.org/2000/svg"
   xmlns="http://www.w3.org/2000/svg"
   viewBox="0 0 576 196"
   height="50px"
   id="svg2"
   fill="currentColor"
   version="1.1">
  <metadata
     id="metadata8">
    <rdf:RDF>
      <cc:Work
         rdf:about="">
        <dc:format>image/svg+xml</dc:format>
        <dc:type
           rdf:resource="http://purl.org/dc/dcmitype/StillImage" />
        <dc:title></dc:title>
      </cc:Work>
    </rdf:RDF>
  </metadata>
  <defs
     id="defs6" />
  <path
     id="path819"
     d="M 251.5,183.92045 C 231.34707,182.68364 211,174.85237 211,168.33264 211,167.59969 210.58462,167 210.07692,167 208.37337,167 203,160.86735 203,158.92308 203,157.86538 202.55,157 202,157 c -0.55,0 -1.00678,-0.7875 -1.01506,-1.75 -0.008,-0.9625 -0.66353,-3.55 -1.4561,-5.75 -2.00929,-5.57727 -1.97901,-22.10417 0.0515,-28.08476 2.1727,-6.39955 0.78948,-7.42005 -4.68358,-3.45538 -5.06288,3.66753 -10.44323,3.90389 -12.29544,0.54014 -0.60571,-1.1 -1.25057,-2.22429 -1.43304,-2.49843 -0.75143,-1.12892 -3.16824,3.58617 -3.16824,6.18109 0,1.71739 -0.77347,3.28343 -2,4.04941 -1.1,0.68696 -1.96447,1.92828 -1.92105,2.75848 0.0537,1.02648 0.24033,1.10949 0.58333,0.25945 0.27741,-0.6875 0.97199,-1.25 1.5435,-1.25 0.7179,0 0.71843,0.38639 0.002,1.25 -1.09567,1.3202 -1.20748,1.73227 -1.20748,4.45 0,1.3539 -0.25279,1.44721 -1.24164,0.45836 -0.98886,-0.98886 -0.93796,-1.43364 0.25,-2.18469 0.88865,-0.56182 1.01195,-0.94923 0.305,-0.95836 -0.65265,-0.008 -1.32765,-1.47412 -1.5,-3.25712 -0.18959,-1.96137 -0.90583,-3.31749 -1.81336,-3.43341 -7.8916,-1.00802 -8.83989,-1.42672 -9.86021,-4.35363 -1.26159,-3.61899 -2.13439,-3.68802 -5.95742,-0.47115 -1.6341,1.375 -3.4429,2.5 -4.01957,2.5 -0.57666,0 -2.62377,0.92944 -4.54912,2.06543 -4.09576,2.41656 -9.51034,0.59404 -9.59837,-3.23077 -0.10109,-4.39225 17.87575,-17.44987 22.75856,-16.53086 1.25062,0.23539 2.51468,0.0383 2.80901,-0.43791 0.73394,-1.18753 8.41712,-1.1003 8.41712,0.0956 0,1.13781 -7.65834,3.36773 -8.90977,2.59431 -0.47499,-0.29356 -1.4197,0.1363 -2.09937,0.95524 -0.67966,0.81894 -1.69155,1.48899 -2.24863,1.48899 -0.55709,0 -1.99349,1.0125 -3.19201,2.25 -1.19851,1.2375 -3.05011,2.80529 -4.11467,3.48398 -1.25579,0.80061 -1.40875,1.15181 -0.43555,1 0.825,-0.12869 2.93248,-1.24648 4.68328,-2.48398 1.7508,-1.2375 3.8883,-2.25 4.75,-2.25 0.8617,0 1.56672,-0.3748 1.56672,-0.83288 0,-0.45809 0.97369,-0.76115 2.16376,-0.67347 2.43021,0.17904 4.20545,3.76771 3.29024,6.65128 -0.73261,2.30826 1.25786,2.44562 4.32349,0.29837 2.47989,-1.73698 2.7877,-3.56543 1.06469,-6.3244 -1.63386,-2.61623 -0.34715,-5.78288 1.66965,-4.10908 0.81849,0.67929 1.48817,1.76497 1.48817,2.41262 0,2.80956 2.34145,3.60541 4.53754,1.54229 1.98836,-1.86796 5.46246,-1.8748 5.46246,-0.0108 0,0.407 0.90458,1.78299 2.01018,3.05776 2.20576,2.54326 1.57933,2.81208 8.76612,-3.76174 1.63997,-1.5001 4.86407,-1.64092 5.7237,-0.25 1.18849,1.92301 2.38175,0.95648 5.86428,-4.75 4.12412,-6.75778 15.13958,-18.424954 19.5482,-20.704741 1.69814,-0.87814 3.08752,-2.031846 3.08752,-2.56379 0,-2.0455 28.23349,-22.329497 37,-26.582189 3.025,-1.467447 5.725,-2.945104 6,-3.283683 1.17935,-1.452012 6.64992,-4.298731 19.5,-10.147205 4.3981,-2.001715 13.47622,-4.249116 15.63094,-3.869635 0.75298,0.132613 3.55135,-0.118168 6.21859,-0.55729 6.00328,-0.988354 13.11772,0.798509 12.24407,3.075222 -0.31388,0.817953 -0.15694,1.231474 0.34876,0.918937 2.58171,-1.595586 3.78466,9.003546 1.32973,11.716212 -1.35391,1.49605 -1.40114,2.138512 -0.30746,4.182072 1.2105,2.261845 -1.0312,8.205974 -3.98479,10.56609 -0.34415,0.275 -0.92722,1.316022 -1.29572,2.313382 -0.3685,0.99736 -1.12317,1.533303 -1.67706,1.190983 -0.56363,-0.348347 -1.01467,0.394298 -1.02434,1.686618 -0.009,1.269959 -1.1345,3.368749 -2.5,4.663977 -1.36549,1.295228 -2.48272,3.207728 -2.48272,4.25 0,1.870588 -1.43819,2.601594 -2.25277,1.14504 -0.23069,-0.4125 -0.27296,-0.163127 -0.0939,0.554163 0.17903,0.717289 -0.76467,3.455518 -2.0971,6.084951 -2.2683,4.476277 -5.59173,12.989146 -7.58085,19.418116 -2.10872,6.81552 8.47753,5.02306 14.02466,-2.37466 C 318.02858,104.56085 331.14121,95 331.99394,95 c 1.47566,0 2.41047,2.275614 2.17959,5.30574 -0.20416,2.67936 -0.0243,2.8255 2.80416,2.27862 1.66227,-0.3214 4.28934,-0.82689 5.83792,-1.12332 1.93763,-0.37089 3.62392,0.0969 5.40773,1.5 3.09245,2.43252 5.5395,2.51533 16.19873,0.5482 19.46282,-3.591824 18.09855,-3.00272 21.71911,-9.378623 1.75854,-3.09684 3.96934,-8.105617 4.91288,-11.130617 1.80909,-5.799912 4.09354,-7.461239 5.82109,-4.233284 0.97757,1.8266 -0.30069,7.304408 -2.79929,11.99597 C 393.24036,92.331481 390,100.6946 390,101.28216 c 0,0.13293 18.5625,0.24113 41.25,0.24043 25.94029,-7.8e-4 44.77587,0.44089 50.75,1.19003 5.225,0.6552 14.9,1.68279 21.5,2.28352 6.6,0.60072 16.725,1.79606 22.5,2.6563 29.81404,4.44108 32.39323,7.59446 4,4.89051 -11.9306,-1.13618 -18,-1.26428 -18,-0.3799 0,0.52524 -0.5511,0.61439 -1.22466,0.1981 -1.55303,-0.95982 -10.23255,-2.24463 -19.27534,-2.85327 -3.85,-0.25914 -10.6,-0.71446 -15,-1.01184 -30.58696,-2.06724 -79.54052,-2.28134 -86.38977,-0.37783 -3.84157,1.06763 -4.54219,1.01154 -5.61024,-0.44912 -0.67126,-0.918 -2.00651,-1.66909 -2.96722,-1.66909 -1.14182,0 -1.54741,-0.51947 -1.17114,-1.5 0.74068,-1.93018 -1.30377,-1.92925 -4.0608,0.002 -5.52899,3.87265 -27.39887,6.62396 -29.44398,3.70416 -1.62973,-2.32676 -6.2907,-2.24418 -12.07473,0.21395 -4.96402,2.10963 -7.50847,1.99109 -9.01419,-0.41996 C 324.38506,105.78567 323,105.36614 323,107.16161 c 0,1.40468 -7.05338,7.83651 -8.59501,7.83761 -0.60226,4.3e-4 -1.9095,0.90078 -2.90499,2.00078 -1.88665,2.08473 -7.79315,2.73466 -10.31565,1.1351 C 296.91141,115.42555 296.22924,110.07429 299,101 c 1.0916,-3.575 1.98816,-6.570371 1.99236,-6.65638 0.004,-0.08601 -0.89236,0.07897 -1.99236,0.366631 -3.58191,0.936691 -2.21287,-2.09773 3.75,-8.311698 3.1625,-3.295674 6.41566,-7.321079 7.22925,-8.945344 0.81359,-1.624265 2.72609,-4.518239 4.25,-6.431053 1.52391,-1.912814 2.77894,-3.937814 2.78895,-4.5 0.0172,-0.966259 4.7637,-8.620922 6.96347,-11.22995 C 324.54175,54.62792 325,53.416977 325,52.601223 c 0,-0.815754 0.45,-1.761304 1,-2.101223 2.01823,-1.247336 1.13464,-7.357007 -1.25,-8.643258 -4.54114,-2.449444 -24.41534,1.421233 -35.54008,6.92175 -8.22355,4.066048 -22.23986,12.26179 -25.53665,14.93201 -1.55469,1.259224 -3.35469,2.295732 -4,2.303351 -0.6453,0.0076 -4.07737,2.482619 -7.62683,5.5 C 248.49697,74.531234 245.23056,77 244.78775,77 c -0.44282,0 -3.61372,2.513456 -7.04644,5.585458 -22.38202,20.030062 -23.39399,21.520272 -15.76458,23.214902 7.35522,1.63373 6.74833,2.13657 11.52638,-9.55036 3.72236,-9.104772 4.92042,-10.426474 7.29689,-8.05 1.36227,1.362271 1.63776,5.8 0.36006,5.8 -0.46197,0 -1.44261,1.9125 -2.17922,4.25 -0.7366,2.3375 -2.1453,5.89346 -3.13045,7.90213 -6.78541,13.83513 36.06419,6.88419 54.89961,-8.905667 5.09197,-4.268631 5.25,-4.325888 5.25,-1.902146 0,1.869594 -1.12414,3.21129 -4.46349,5.327323 -2.45492,1.5556 -4.47992,3.39086 -4.5,4.07836 -0.0201,0.6875 -0.88141,1.25 -1.91407,1.25 -1.03265,0 -2.43775,0.675 -3.12244,1.5 -1.69125,2.03783 -3.06122,1.89435 -2.38698,-0.25 0.46837,-1.48959 0.31428,-1.46031 -1.03549,0.19675 -1.62001,1.98881 -9.77093,5.55097 -12.70509,5.55244 -0.89515,4.4e-4 -2.17053,0.65506 -2.83417,1.4547 -0.89334,1.07641 -3.00225,1.37463 -8.12245,1.1486 -3.8037,-0.16791 -6.91582,0.0778 -6.91582,0.54611 0,1.01811 -3.37517,1.1429 -4.35698,0.16109 -0.96661,-0.96662 -17.02165,-1.07777 -17.69267,-0.12249 -0.56293,0.8014 -4.07569,1.04412 -11.85408,0.81909 -5.71285,-0.16528 -6.58309,0.89418 -8.50196,10.35067 -8.09888,39.91239 25.74513,61.90485 77.90569,50.62455 2.75,-0.59471 7.25,-1.54433 10,-2.11025 2.75,-0.56593 8.51868,-2.1623 12.81928,-3.5475 4.3006,-1.38519 8.02715,-2.31067 8.28121,-2.05661 1.42798,1.42799 -11.96649,6.78844 -22.10049,8.8446 -3.3,0.66956 -7.17941,1.79984 -8.62091,2.51174 -1.4415,0.7119 -5.7165,1.55858 -9.5,1.88151 -3.7835,0.32293 -8.00409,0.70041 -9.37909,0.83884 -1.375,0.13843 -7.45,-0.0521 -13.5,-0.42339 z M 325.41655,59.356872 c 0.83718,-2.181656 -0.27438,-3.195703 -1.45561,-1.327912 C 322.7784,59.898823 322.75323,61 323.89301,61 c 0.49116,0 1.17675,-0.739408 1.52354,-1.643128 z M 48.5,170.00606 c -1.1,-0.45427 -4.7,-1.85358 -8,-3.10957 C 25.091919,161.03211 19.44279,145.44093 28.162403,132.84563 29.173081,131.38573 30,129.74637 30,129.20262 c 0,-0.54375 0.675,-1.24766 1.5,-1.56425 0.825,-0.31658 1.5,-1.65962 1.5,-2.98454 0,-1.32492 0.675,-2.96914 1.5,-3.65383 0.825,-0.68469 1.5,-1.70594 1.5,-2.26945 0,-1.32044 6.304113,-9.17005 11.195783,-13.94049 2.092319,-2.04047 3.825579,-4.06547 3.851688,-4.5 C 51.073581,99.855525 53.52624,97.25 56.497827,94.5 59.469413,91.75 66.533952,85.05428 72.196803,79.620622 77.859654,74.186964 85.756994,67.284612 89.746448,64.282062 93.735901,61.279512 97,58.484964 97,58.071955 c 0,-0.413009 1.187574,-1.29202 2.639052,-1.953358 1.451478,-0.661338 3.525428,-2.329271 4.608768,-3.706518 1.08334,-1.377247 3.83327,-3.389547 6.11095,-4.471777 2.27767,-1.08223 5.66471,-3.311528 7.52674,-4.953996 C 119.74754,41.343838 121.7175,40 122.26319,40 c 0.5457,0 4.02726,-2.25 7.73681,-5 3.70955,-2.75 7.05347,-5 7.43095,-5 0.37748,0 2.34744,-1.321713 4.37769,-2.937139 2.03025,-1.615427 5.04136,-3.252476 6.69136,-3.637888 1.65,-0.385411 3.51155,-1.101516 4.13678,-1.591343 2.00712,-1.572448 10.82171,-5.825117 12.0828,-5.829445 0.67077,-0.0023 2.81715,-0.901481 4.76972,-1.998176 18.52846,-10.4068113 41.07224,0.05374 36.5233,16.947196 -3.36978,12.514408 -18.43031,31.643041 -28.76672,36.537101 -6.64809,3.147723 -8.63125,3.161446 -4.8041,0.03324 1.61799,-1.322489 3.30866,-2.177783 3.75707,-1.900655 0.4484,0.277129 1.08524,-0.199652 1.4152,-1.059512 C 177.94401,63.703522 178.78798,63 179.48953,63 c 0.70155,0 3.18867,-2.936362 5.52692,-6.525249 2.33825,-3.588887 4.81485,-6.851387 5.50355,-7.25 2.48155,-1.436301 10.11696,-17.871897 11.06035,-23.807954 3.65281,-22.9844357 -29.5907,-13.227309 -85.06041,24.965632 -8.3401,5.742466 -23.355341,18.540008 -39.902606,34.009127 C 70.081868,90.5012 64.456868,95.725 64.117334,96 44.791741,111.65245 27.678829,144.52836 33.148086,155.49555 38.316724,165.85992 65.044002,170.73414 84,164.76934 c 3.025,-0.95186 6.625,-1.69267 8,-1.64624 4.069713,0.13744 14.21658,-1.83352 18.21788,-3.5387 2.04484,-0.87142 5.55468,-1.5844 7.79966,-1.5844 2.24498,0 5.40943,-0.68656 7.03212,-1.52568 1.62269,-0.83912 2.95034,-1.23737 2.95034,-0.88499 0,0.35238 1.06436,-0.0567 2.36524,-0.90908 1.76409,-1.15587 2.65366,-1.26135 3.5,-0.41501 0.77703,0.77703 1.13476,0.79471 1.13476,0.0561 0,-0.59327 1.4625,-1.61644 3.25,-2.27369 7.85575,-2.88854 21.75,-9.46581 21.75,-10.29603 0,-0.41338 0.58619,-0.7516 1.30265,-0.7516 0.71646,0 3.19146,-1.87011 5.5,-4.1558 2.63138,-2.60534 4.19735,-3.58373 4.19735,-2.62245 0,0.84335 -0.675,2.09356 -1.5,2.77825 -0.825,0.68469 -1.5,1.8135 -1.5,2.50848 0,2.42456 -23.96011,15.57622 -26.95191,14.79385 -0.92829,-0.24276 -2.27397,0.26491 -2.99039,1.12815 -0.71642,0.86323 -2.05749,1.56952 -2.98014,1.56952 -0.92266,0 -2.10506,0.35814 -2.62756,0.79586 -2.53859,2.12669 -27.32113,8.31211 -30.2425,7.54815 -1.21998,-0.31903 -2.885025,-0.0266 -3.700091,0.64984 -0.815067,0.67645 -2.156122,0.97119 -2.980123,0.65499 -0.824002,-0.31619 -4.317232,0.36081 -7.762735,1.50446 -6.7357,2.23574 -35.096647,3.574 -39.264551,1.85276 z M 316,170 c 0,-0.55 0.47656,-1 1.05902,-1 0.58246,0 0.7809,0.45 0.44098,1 -0.33992,0.55 -0.81648,1 -1.05902,1 C 316.19844,171 316,170.55 316,170 Z"/>
</svg>
